<svg width="535" height="320" xmlns="http://www.w3.org/2000/svg">
 <g>
  <title>Klassendiagrammbausteine</title>


  <path d="M10,35 l250,0 l0,50 l-100,0 a25,25 0 1 0 -50,0 l-100,0 z" style="stroke: #000; stroke-width:2; fill:#E6E6FA;"/>
  <text x="135" y="53" style="text-anchor: middle">Drone</text>

  <path d="M10,135 l100,0 a25,25 0 1 1 50,0 l100,0 l0,50 l-25,0 a25,25 0 1 0 -50,0 l-25,0  a25,25 0 1 0 -50,0 l-25,0  a25,25 0 1 0 -50,0 l-25,0 z" style="stroke: #000; stroke-width:2; fill:#E6E6FA;"/>
  <text x="135" y="153" style="text-anchor: middle">RPYTCombiner</text>

  <path d="M10,235 l100,0 a25,25 0 1 1 50,0 l100,0 l0,50 l-100,0 l0,-25 l-50,0 l0,25 l-100,0 z" style="stroke: #000; stroke-width:2; fill:#E6E6FA;"/>
  <text x="135" y="253" style="text-anchor: middle">VConverter</text>


  <path d="M275,35 l100,0 l0,-25 l50,0 l0,25 l100,0 l0,50 l-25,0 l0,-25 l-50,0 l0,25 l-25,0 l0,-25 l-50,0 l0,25 l-25,0 l0,-25 l-50,0 l0,25 l-25,0 z" style="stroke: #000; stroke-width:2; fill:#E6E6FA;"/>
  <text x="400" y="53" style="text-anchor: middle">VCombiner</text>

  <path d="M275,135 l100,0 a25,25 0 1 1 50,0 l100,0 l0,50 l-250,0 z" style="stroke: #000; stroke-width:2; fill:#E6E6FA;"/>
  <text x="400" y="153" style="text-anchor: middle">Looping</text>

  <path d="M275,235 l100,0 l0,-25 l50,0 l0,25 l100,0 l0,50 l-250,0 z" style="stroke: #000; stroke-width:2; fill:#E6E6FA;"/>
  <text x="400" y="253" style="text-anchor: middle">ToRight</text>
 </g>
</svg>